<?xml version="1.0" standalone="no"?>
<svg viewBox="0 0 200 200" xmlns="http://www.w3.org/2000/svg">
  <path fill="#0F62FE" d="M41.3,-70.8C55.6,-63.2,70.9,-56.5,75.2,-44.8C79.5,-33.2,72.9,-16.6,69.9,-1.7C66.9,13.1,67.6,26.3,62.3,36.3C57.1,46.4,46,53.4,34.6,57C23.3,60.6,11.6,60.7,-2.5,65C-16.6,69.4,-33.2,77.9,-46.8,75.6C-60.4,73.3,-70.9,60.1,-77.7,45.7C-84.5,31.4,-87.6,15.7,-82.8,2.8C-78,-10.1,-65.2,-20.2,-53.8,-26.6C-42.3,-32.9,-32.2,-35.6,-23.5,-46.5C-14.7,-57.3,-7.4,-76.4,3,-81.7C13.5,-87,26.9,-78.5,41.3,-70.8Z" transform="translate(100 100)" />
</svg>
