<?xml version="1.0" standalone="no"?>
<svg viewBox="0 0 200 200" xmlns="http://www.w3.org/2000/svg">
  <path fill="#E5BD38" d="M32.6,-51.2C44.9,-49.5,59.3,-46,67.9,-37.2C76.4,-28.3,79.2,-14.2,74.8,-2.6C70.4,9.1,58.7,18.1,51,28.4C43.3,38.8,39.6,50.4,31.7,61.5C23.9,72.5,11.9,82.9,-0.9,84.5C-13.8,86.1,-27.5,78.8,-35.9,68.1C-44.3,57.3,-47.2,43.2,-49.5,31.3C-51.7,19.3,-53.2,9.7,-59.1,-3.4C-65,-16.5,-75.2,-32.9,-70,-39.6C-64.8,-46.3,-44,-43.3,-29.8,-43.9C-15.5,-44.5,-7.8,-48.6,1.2,-50.7C10.2,-52.9,20.4,-52.9,32.6,-51.2Z" transform="translate(100 100)" />
</svg>
