<?xml version="1.0" standalone="no"?>
<svg viewBox="0 0 200 200" xmlns="http://www.w3.org/2000/svg">
  <path fill="#57C5C7" d="M23,-44.5C28.8,-36.5,31.8,-28.3,43.8,-20.9C55.7,-13.4,76.6,-6.7,83.2,3.8C89.8,14.3,82.1,28.6,70.4,36.5C58.6,44.3,42.9,45.6,30.5,52.2C18.1,58.8,9,70.6,-2.6,75.1C-14.2,79.5,-28.3,76.5,-42.6,71C-56.8,65.5,-71.2,57.4,-77.7,45.2C-84.3,32.9,-83.1,16.5,-79.1,2.3C-75.2,-11.9,-68.5,-23.8,-61.2,-34.8C-54,-45.9,-46.1,-56,-35.8,-61.4C-25.5,-66.8,-12.7,-67.5,-2.1,-63.9C8.6,-60.3,17.2,-52.5,23,-44.5Z" transform="translate(100 100)" />
</svg>
