<?xml version="1.0" standalone="no"?>
<svg viewBox="0 0 200 200" xmlns="http://www.w3.org/2000/svg">
  <path fill="#EBADEB" d="M37.5,-63.6C50,-57.7,62.6,-50.5,65.9,-39.7C69.2,-28.9,63.3,-14.5,64.2,0.5C65.2,15.5,73,31.1,67.9,38.8C62.8,46.6,44.8,46.5,31.4,54.1C17.9,61.6,8.9,76.7,-2.4,80.9C-13.8,85.1,-27.7,78.5,-34.6,67.2C-41.6,56,-41.7,40.1,-42.3,28.1C-42.8,16.1,-43.7,8.1,-48.7,-2.8C-53.6,-13.7,-62.5,-27.5,-61,-37.8C-59.5,-48.1,-47.6,-54.9,-35.7,-61.3C-23.8,-67.6,-11.9,-73.4,0.3,-73.9C12.5,-74.4,24.9,-69.6,37.5,-63.6Z" transform="translate(100 100)" />
</svg>
