<?xml version="1.0" standalone="no"?>
<svg viewBox="0 0 200 200" xmlns="http://www.w3.org/2000/svg">
  <path fill="#F32B35" d="M43.8,-69.9C56.8,-68.3,67.5,-56.7,67.1,-43.4C66.8,-30.1,55.3,-15.1,56.2,0.5C57,16,70.2,32.1,69.1,43C68.1,53.8,52.9,59.6,39,67C25.2,74.4,12.6,83.4,-1.9,86.8C-16.5,90.1,-32.9,87.8,-41.3,77.3C-49.7,66.7,-50,47.9,-48.1,33.6C-46.3,19.3,-42.4,9.7,-45.2,-1.6C-48,-12.9,-57.6,-25.8,-58,-37.7C-58.5,-49.6,-49.8,-60.4,-38.6,-63.1C-27.4,-65.8,-13.7,-60.3,0.8,-61.7C15.4,-63.2,30.7,-71.5,43.8,-69.9Z" transform="translate(100 100)" />
</svg>
