<?xml version="1.0" standalone="no"?>
<svg viewBox="0 0 200 200" xmlns="http://www.w3.org/2000/svg">
  <path fill="#FFFF00" d="M33.8,-59.5C36.6,-57,26.7,-33.3,29.5,-19.9C32.3,-6.4,47.8,-3.2,52.4,2.7C57,8.5,50.7,17.1,47.9,30.5C45.1,43.9,45.8,62.2,38.4,64.4C31,66.6,15.5,52.7,2.5,48.4C-10.5,44.1,-21,49.4,-23.2,44.1C-25.3,38.9,-19,23.1,-30.4,14C-41.7,4.9,-70.7,2.4,-73.8,-1.8C-76.9,-6,-54.1,-12.1,-40.8,-17.8C-27.5,-23.4,-23.6,-28.8,-18.4,-30C-13.1,-31.1,-6.6,-28,4.5,-35.8C15.5,-43.5,31,-62.1,33.8,-59.5Z" transform="translate(100 100)" />
</svg>
